<?xml version="1.0" encoding="UTF-8"?>
<svg width="700pt" height="700pt" version="1.1" fill="#61DAFB" viewBox="100 30 500 500" xmlns="http://www.w3.org/2000/svg" xmlns:xlink="http://www.w3.org/1999/xlink">
 <g>
  <path d="m323.86 202.75-96.656-39.48c-3.7305-1.5195-8.0703-2.3242-12.578-2.3242-7.9023 0-15.664 2.375-21.293 6.5117l-77.074 56.617c-9.3594 6.8711-14.926 20.688-12.938 32.133l14 80.641c1.7852 10.344 9.6094 21.801 18.594 27.234l87.227 52.773c4.2227 2.5547 9.1836 3.9102 14.34 3.9102 8.043 0 15.922-3.3867 21.086-9.082l62.266-68.602c6.3672-7.0117 11.703-18.938 12.691-28.352l8.5625-81.523c1.3086-12.582-6.5273-25.676-18.227-30.457zm-1.3867 28.398-8.5625 81.52c-0.54687 5.2422-4.1367 13.262-7.6875 17.164l-62.258 68.605c-1.4688 1.6055-3.9531 2.6133-6.4922 2.6133-1.5586 0-2.9961-0.375-4.1445-1.0625l-87.227-52.773c-4.0898-2.4766-8.5508-9.0156-9.375-13.73l-13.977-80.652c-0.72656-4.207 1.7344-10.348 5.1797-12.875l77.078-56.609c2.2188-1.6289 5.9922-2.6836 9.6211-2.6836 1.9492 0 3.7617 0.30859 5.125 0.86328l96.641 39.473c3.5859 1.4609 6.4766 6.293 6.0781 10.148z"/>
  <path d="m247.96 315.31c0.26172-2.1602 1.6289-5.2695 3.0312-6.9258l62.293-73.629c1.3984-1.6641 1.1914-1.8594-0.44922-0.45312l-70.266 60.203c-1.6406 1.4062-4.6211 1.875-6.6211 1.0117l-98.156-41.848c-1.9922-0.85156-2.1094-0.62109-0.26172 0.50391l90.484 55.223c1.8477 1.125 3.5039 3.8242 3.6719 5.9805l5.9648 76.035c0.16406 2.168 0.52734 2.1719 0.79688 0.023438z"/>
  <path d="m395.88 215.96 4.1328 52.68 6.1133-4.4844 6.0156-48.266c0.27344-2.1523 1.6406-5.2656 3.0508-6.9219l62.277-73.633c1.3984-1.6523 1.2031-1.8594-0.4375-0.44141l-70.266 60.184c-1.6406 1.418-4.625 1.875-6.6211 1.0234l-98.164-41.855c-1.9883-0.85547-2.1094-0.62109-0.26172 0.50391l90.496 55.223c1.8516 1.1406 3.5039 3.8281 3.6641 5.9883z"/>
  <path d="m577.95 283.08-96.656-39.477c-3.7305-1.5234-8.0703-2.3242-12.578-2.3242-7.8945 0-15.664 2.3672-21.297 6.5l-77.066 56.617c-9.3633 6.875-14.93 20.688-12.941 32.137l14 80.633c1.7812 10.344 9.6055 21.797 18.594 27.227l87.215 52.781c4.2227 2.5586 9.1914 3.9141 14.348 3.9141 8.043 0 15.914-3.3945 21.078-9.082l62.266-68.605c6.3672-7.0156 11.703-18.938 12.691-28.352l8.5508-81.523c1.3281-12.574-6.5-25.668-18.203-30.445zm-1.3906 28.395-8.5625 81.52c-0.53906 5.2461-4.1328 13.262-7.6758 17.164l-62.266 68.609c-1.457 1.6055-3.9375 2.6094-6.4727 2.6094-1.5625 0-2.9961-0.36328-4.1445-1.0586l-87.227-52.781c-4.0898-2.4766-8.5508-9.0156-9.375-13.727l-13.988-80.641c-0.73438-4.2188 1.7305-10.359 5.1875-12.887l77.055-56.609c2.2188-1.6289 5.9922-2.6836 9.625-2.6836 1.9492 0 3.7617 0.30859 5.1172 0.85547l96.656 39.48c3.5898 1.4609 6.4727 6.3008 6.0703 10.148z"/>
  <path d="m502.05 395.62c0.26172-2.1523 1.6289-5.2656 3.0312-6.9219l62.289-73.633c1.3984-1.6445 1.1914-1.8555-0.44922-0.44141l-70.262 60.203c-1.6523 1.418-4.625 1.8711-6.6289 1.0234l-98.148-41.871c-1.9883-0.83984-2.1094-0.62109-0.26172 0.51562l90.484 55.223c1.8594 1.1328 3.5 3.8242 3.6719 5.9805l5.9688 76.035c0.16406 2.1719 0.52734 2.1797 0.78906 0.023438z"/>
  <path d="m347.03 293.05 11.008 6.6641c0.96484-0.85547 1.9492-1.6758 2.9727-2.4258l14.043-10.328-25.762-15.586z"/>
  <path d="m488.05 103.34-96.656-39.48c-3.7188-1.5195-8.0703-2.3242-12.578-2.3242-7.8945 0-15.664 2.3672-21.297 6.5078l-77.059 56.617c-9.3594 6.8711-14.926 20.688-12.941 32.133l2.2773 13.113 21.527 8.793-4.3867-25.285c-0.72656-4.2109 1.7422-10.348 5.1875-12.879l77.066-56.609c2.2188-1.6289 5.9922-2.6836 9.625-2.6836 1.9492 0 3.7734 0.3125 5.1289 0.86328l96.645 39.48c3.5898 1.4609 6.4727 6.293 6.082 10.148l-8.5625 81.516c-0.54688 5.2422-4.1328 13.262-7.6758 17.164l-0.65625 0.71875c6.1602 0.11719 12.188 1.3047 17.477 3.4648l3.293 1.3477c3.7305-6.4531 6.4844-14.145 7.1641-20.641l8.5625-81.523c1.3164-12.57-6.5078-25.656-18.223-30.441z"/>
 </g>
</svg>
